<svg xmlns="http://www.w3.org/2000/svg" viewBox="0 0 14 14" enable-background="new 0 0 14 14">
    <path fill="#dd4b38" d="M7.2 8l-.6-.6c-.2-.1-.5-.3-.5-.7 0-.4.3-.7.5-.9.8-.6 1.5-1.3 1.5-2.6S7.5 1.3 7.2 1h.9L9 0H5.4c-1 0-2.2.1-3.3 1C1.3 1.7.9 2.6.9 3.5c0 1.4 1.1 2.9 3 2.9h.6c0 .1-.1.3-.1.6 0 .6 0 .8.3 1.1-.9.1-2.2.2-3.3.9C.3 9.6 0 10.7 0 11.4 0 12.7 1.3 14 3.9 14c3.2 0 4.8-1.7 4.8-3.5C8.8 9.3 8 8.6 7.2 8zM2.5 2.6c0-.5.1-1 .4-1.4.3-.4.8-.6 1.3-.6C5.7.6 6.5 2.7 6.5 4c0 .3 0 .9-.5 1.3-.2.3-.7.5-1.2.5-1.6 0-2.3-2-2.3-3.2zm2.3 10.6c-2 0-3.2-.9-3.2-2.2s1.1-1.7 1.5-1.8c.8-.3 1.8-.3 1.8-.3h.7c1.1.5 2 1.5 2 2.4-.1 1.1-1 1.9-2.8 1.9zM14 6h-2V4h-1v2H9v1h2v2h1V7h2z"/>
</svg>
