<svg xmlns="http://www.w3.org/2000/svg" viewBox="0 0 12 12" enable-background="new 0 0 12 12">
    <g fill="#fff">
        <path d="M2.3 7.7c-.1 0-.2-.1-.3-.2h-.6c.2.5.4.9.9 1.2.1.1.2.1.3.2.4-.2.8-.4 1.1-.7-.5 0-.9-.2-1.4-.5zM1.7 4.4c-.3-.2-.6-.5-.8-.9-.1-.3-.2-.5-.2-.7 0 .2-.1.3-.1.5 0 .3.1.6.2.9.2.1.6.2.9.2zM10.8 3.5s-.1 1.3-.3 2-.5 1.2-.9 1.8c-.4.6-.9 1.1-1.4 1.6-.6.5-1.2.8-2 1.1-.8.3-1.6.4-2.5.4-.7 0-1.3-.1-1.9-.3-.4.1-.8.2-1.3.2h-.6c1.1.7 2.4 1.1 3.8 1.1.9 0 1.7-.1 2.5-.4.8-.3 1.4-.6 2-1.1.5-.5 1-1 1.4-1.6.4-.6.7-1.2.9-1.9s.3-1.3.3-2V3.5zM1.6 7.1c-.1-.2-.1-.4-.2-.6h.5c.2 0 .4 0 .7-.1-.6-.1-1.1-.4-1.4-.8-.1-.1-.2-.3-.3-.4-.1 0-.2-.1-.3-.1 0 .6.2 1.1.6 1.6.1.1.3.2.4.4z"/>
    </g>
    <path fill="#23aae3" d="M10.6 2.2c.5-.3.9-.8 1.1-1.4-.5.3-1 .5-1.6.6C9.6.9 9 .6 8.3.6s-1.3.3-1.7.7-.7 1.1-.7 1.8c0 .2 0 .4.1.6-1-.1-1.9-.4-2.8-.8-.9-.5-1.6-1.1-2.3-1.8-.2.4-.3.8-.3 1.2s.1.8.3 1.2.5.7.8.9c-.4 0-.8-.1-1.1-.3 0 .6.2 1.1.6 1.6.3.3.8.6 1.4.7-.3.1-.5.1-.7.1h-.5c.2.5.4.9.9 1.2.5.3.9.5 1.4.5-.9.7-1.9 1.1-3.1 1.1H0c1.1.7 2.4 1.1 3.8 1.1.9 0 1.7-.1 2.5-.4.8-.3 1.4-.6 2-1.1.5-.5 1-1 1.4-1.6s.7-1.2.9-1.9.3-1.3.3-2v-.3c.5-.4.9-.8 1.2-1.3-.6.2-1 .3-1.5.4z"/>
    <g fill="#0091c9">
        <path d="M6.6 2.3c.4-.4 1-.7 1.7-.7s1.3.3 1.8.8c.4-.1.7-.2.5-.2.5-.3.9-.8 1.1-1.4-.5.3-1 .5-1.6.6C9.6.9 9 .6 8.3.6s-1.3.3-1.7.7c-.4.4-.7 1.1-.7 1.8 0 .2 0 .3.1.5 0-.6.3-1 .6-1.3zM.9 2.1c.7.7 1.4 1.3 2.3 1.8.9.4 1.8.7 2.8.8-.1-.2-.1-.4-.1-.6 0-.1 0-.3.1-.4-1-.1-1.9-.4-2.7-.8-1-.5-1.7-1.1-2.4-1.8-.2.4-.3.8-.3 1.2 0 .2 0 .3.1.5 0-.3.1-.5.2-.7z"/>
    </g>
</svg>
